HIERARCHY
ROOT Hips
{
	OFFSET 0.00000 0.00000 0.00000
	CHANNELS 6 Xposition Yposition Zposition Zrotation Yrotation Xrotation 
	JOINT LHipJoint
	{
		OFFSET 0 0 0
		CHANNELS 3 Zrotation Yrotation Xrotation
		JOINT LeftUpLeg
		{
			OFFSET 1.33213 -1.58186 0.78596
			CHANNELS 3 Zrotation Yrotation Xrotation
			JOINT LeftLeg
			{
				OFFSET 2.29717 -6.31144 0.00000
				CHANNELS 3 Zrotation Yrotation Xrotation
				JOINT LeftFoot
				{
					OFFSET 2.38430 -6.55082 0.00000
					CHANNELS 3 Zrotation Yrotation Xrotation
					JOINT LeftToeBase
					{
						OFFSET 0.11863 -0.32594 1.77568
						CHANNELS 3 Zrotation Yrotation Xrotation
						End Site
						{
							OFFSET 0.00000 -0.00000 0.91633
						}
					}
				}
			}
		}
	}
	JOINT RHipJoint
	{
		OFFSET 0 0 0
		CHANNELS 3 Zrotation Yrotation Xrotation
		JOINT RightUpLeg
		{
			OFFSET -1.41575 -1.58186 0.78596
			CHANNELS 3 Zrotation Yrotation Xrotation
			JOINT RightLeg
			{
				OFFSET -2.42012 -6.64922 0.00000
				CHANNELS 3 Zrotation Yrotation Xrotation
				JOINT RightFoot
				{
					OFFSET -2.47254 -6.79327 0.00000
					CHANNELS 3 Zrotation Yrotation Xrotation
					JOINT RightToeBase
					{
						OFFSET -0.15219 -0.41813 1.93430
						CHANNELS 3 Zrotation Yrotation Xrotation
						End Site
						{
							OFFSET -0.00000 -0.00000 0.99984
						}
					}
				}
			}
		}
	}
	JOINT LowerBack
	{
		OFFSET 0 0 0
		CHANNELS 3 Zrotation Yrotation Xrotation
		JOINT Spine
		{
			OFFSET -0.04717 2.09389 -0.14516
			CHANNELS 3 Zrotation Yrotation Xrotation
			JOINT Spine1
			{
				OFFSET 0.02825 2.09433 -0.11325
				CHANNELS 3 Zrotation Yrotation Xrotation
				JOINT Neck
				{
					OFFSET 0 0 0
					CHANNELS 3 Zrotation Yrotation Xrotation
					JOINT Neck1
					{
						OFFSET -0.01210 1.39029 0.12448
						CHANNELS 3 Zrotation Yrotation Xrotation
						JOINT Head
						{
							OFFSET 0.09492 1.38365 0.14559
							CHANNELS 3 Zrotation Yrotation Xrotation
							End Site
							{
								OFFSET 0.03402 1.40343 0.03708
							}
						}
					}
				}
				JOINT LeftShoulder
				{
					OFFSET 0 0 0
					CHANNELS 3 Zrotation Yrotation Xrotation
					JOINT LeftArm
					{
						OFFSET 2.83352 1.10671 -0.20481
						CHANNELS 3 Zrotation Yrotation Xrotation
						JOINT LeftForeArm
						{
							OFFSET 4.77195 -0.00000 -0.00000
							CHANNELS 3 Zrotation Yrotation Xrotation
							JOINT LeftHand
							{
								OFFSET 2.98444 -0.00000 0.00000
								CHANNELS 3 Zrotation Yrotation Xrotation
								JOINT LeftFingerBase
								{
									OFFSET 0 0 0
									CHANNELS 3 Zrotation Yrotation Xrotation
									JOINT LeftHandIndex1
									{
										OFFSET 0.99228 -0.00000 0.00000
										CHANNELS 3 Zrotation Yrotation Xrotation
										End Site
										{
											OFFSET 0.80001 -0.00000 0.00000
										}
									}
								}
								JOINT LThumb
								{
									OFFSET 0 0 0
									CHANNELS 3 Zrotation Yrotation Xrotation
									End Site
									{
										OFFSET 0.81222 -0.00000 0.81222
									}
								}
							}
						}
					}
				}
				JOINT RightShoulder
				{
					OFFSET 0 0 0
					CHANNELS 3 Zrotation Yrotation Xrotation
					JOINT RightArm
					{
						OFFSET -3.23760 1.11106 0.06723
						CHANNELS 3 Zrotation Yrotation Xrotation
						JOINT RightForeArm
						{
							OFFSET -4.62052 -0.00000 0.00000
							CHANNELS 3 Zrotation Yrotation Xrotation
							JOINT RightHand
							{
								OFFSET -2.95332 -0.00000 0.00000
								CHANNELS 3 Zrotation Yrotation Xrotation
								JOINT RightFingerBase
								{
									OFFSET 0 0 0
									CHANNELS 3 Zrotation Yrotation Xrotation
									JOINT RightHandIndex1
									{
										OFFSET -0.99096 -0.00000 0.00000
										CHANNELS 3 Zrotation Yrotation Xrotation
										End Site
										{
											OFFSET -0.79893 -0.00000 0.00000
										}
									}
								}
								JOINT RThumb
								{
									OFFSET 0 0 0
									CHANNELS 3 Zrotation Yrotation Xrotation
									End Site
									{
										OFFSET -0.81113 -0.00000 0.81113
									}
								}
							}
						}
					}
				}
			}
		}
	}
}
MOTION
Frames: 14
Frame Time: 0.0689655
0.00 0.00 0.00 0 0 0 0 0 0 -21 0 0 0 0 0 0 0 0 0 0 0 0 0 0 21 0 0 0 0 0 0 0 0 0 0 0 0 0 0 0 0 0 0 0 0 0 0 -16 0 0 21 0 0 11 0 0 0 -8 0 0 0 0 0 0 0 0 0 0 0 0 0 0 0 0 0 0 0 0 8 0 0 0 0 0 0 0 0 0 0 0 0 0 0 0 0 0
0.00 0.00 0.00 -178.7630 -6.7261 -170.0520 0.0000 0.0000 0.0000 -15.3897 -10.1695 -5.0489 4.0006 12.1612 36.3047 -0.0389 -7.2862 -4.1549 1.5902 -7.9545 -22.5758 0.0000 0.0000 0.0000 19.4959 11.4869 -30.1821 -4.5988 -12.9172 39.0592 -1.0890 15.7045 -20.2465 -0.4901 -4.4889 12.4563 -1.7048 -3.1635 -8.2745 1.0318 -4.1114 1.8276 1.4566 -2.1098 6.7571 -5.4773 -2.7477 0.6938 9.8125 -2.4607 -10.9859 3.9439 -1.1649 -3.1440 0.0000 0.0000 0.0000 -90.2099 -6.3004 15.4789 10.6504 -17.7504 -1.6678 -0.0000 -0.0000 20.3265 -0.0274 10.7247 -0.0051 -7.1250 0.0000 -0.0000 -23.3608 39.5577 3.3482 0.0000 0.0000 0.0000 92.4533 -5.0759 -6.0951 -12.5522 20.6275 -2.2931 0.0000 0.0000 38.0747 -1.7510 -5.6832 0.1735 7.1250 -0.0000 -0.0000 20.4896 -35.0070 5.3146
0.00 0.00 0.00 -178.4620 -6.6423 -170.1990 0.0000 0.0000 0.0000 -14.0132 -11.7750 -15.8420 8.5223 16.4903 54.4229 0.0196 0.8979 2.4871 0.1352 -2.3701 -6.5297 0.0000 0.0000 0.0000 21.9910 8.3430 -27.6689 -4.1092 -12.3043 36.8172 -0.6830 18.8741 -18.6425 -0.6145 -5.0170 13.9570 -0.9768 -3.0302 -7.8947 0.7650 -3.9965 1.9041 0.8075 -2.0193 6.5436 -5.3414 -2.7103 0.7585 9.6546 -2.4226 -11.0058 3.8732 -1.1480 -3.1691 -0.0000 0.0000 0.0000 -89.2894 -6.5187 15.7807 10.7022 -17.8304 -1.6836 -0.0000 -0.0000 22.4668 2.5771 9.5221 0.4266 -7.1250 0.0000 -0.0000 -20.8573 38.6561 3.4379 -0.0000 0.0000 0.0000 92.1767 -5.3285 -3.9853 -12.9942 21.2787 -2.4512 0.0000 0.0000 36.4581 -1.2346 -5.7391 0.1235 7.1250 -0.0000 -0.0000 20.9105 -35.0295 5.4246
0.00 0.00 0.00 -180.3960 -2.5570 -172.0940 0.0000 0.0000 0.0000 -20.6902 -10.3266 -31.7500 3.6029 11.6124 34.3743 -0.3856 -12.7729 -2.3800 0.5338 -4.6814 -13.0020 0.0000 0.0000 0.0000 20.6003 -0.8209 -9.9495 -6.9893 -15.3229 48.8339 1.1275 19.7914 -0.4387 -1.7227 -8.2628 23.5152 -2.2327 -0.0489 -8.7273 -0.8869 0.2268 1.8175 0.3579 0.0331 6.8080 -4.4335 -2.7755 1.5881 9.2824 -3.6154 -8.6667 4.0142 -2.1349 -2.8433 -0.0000 0.0000 0.0000 -86.6260 1.1065 7.5437 9.3792 -15.7626 -1.3012 -0.0000 -0.0000 31.6344 7.7668 8.4106 1.1429 -7.1250 0.0000 -0.0000 -16.2849 37.9831 2.9062 -0.0000 0.0000 0.0000 92.0759 -4.5208 5.4670 -16.6829 26.4378 -3.9451 0.0000 0.0000 28.1978 -0.5363 -5.3987 0.0505 7.1250 -0.0000 -0.0000 21.3726 -34.6715 5.7594
0.00 0.00 0.00 -181.7530 -2.1722 -172.8530 0.0000 0.0000 0.0000 -23.9032 -6.0109 -27.8211 3.2306 11.0593 32.4802 -0.6464 -15.7754 -1.8149 0.0903 -1.9384 -5.3354 0.0000 0.0000 0.0000 16.5415 -0.4736 -21.0449 -12.2723 -18.5034 66.8494 0.3049 12.8606 -4.2720 -0.7291 -5.4557 15.2129 -4.0425 -0.4756 -7.6757 -1.1780 -0.1890 2.2760 1.0097 -0.2525 6.7128 -4.5809 -2.4780 1.6820 9.7875 -3.1728 -9.4746 3.8139 -1.9822 -2.8333 -0.0000 -0.0000 0.0000 -86.3551 1.0791 10.9916 10.0825 -16.8685 -1.4988 -0.0000 -0.0000 28.8010 8.2605 8.6259 1.2474 -7.1250 0.0000 -0.0000 -15.9260 38.2266 2.7396 -0.0000 -0.0000 0.0000 91.8910 -3.8228 5.9158 -17.4023 27.3850 -4.2707 0.0000 0.0000 28.5334 -1.0445 -5.8054 0.1057 7.1250 -0.0000 -0.0000 21.0769 -35.0801 5.4453
0.00 0.00 0.00 -180.9330 -13.5474 -171.3590 0.0000 0.0000 0.0000 -21.0520 -5.2789 -3.1547 1.7006 8.2124 23.3612 -1.5178 -25.1420 -5.2186 0.5818 4.8840 13.5780 0.0000 0.0000 0.0000 9.5309 10.1535 -39.3931 -3.4609 -11.4061 33.6621 -0.1263 5.2530 -6.8271 -0.6116 -5.0055 13.9242 -3.5299 -3.6530 -9.8454 0.0181 -4.4412 2.1130 1.2511 -2.3321 8.0423 -5.0716 -3.2943 1.7873 10.2856 -4.2635 -8.2070 4.0394 -2.4716 -2.3695 -0.0000 0.0000 0.0000 -89.9471 -3.0127 -7.8433 5.7034 -9.7665 -0.4877 -0.0000 -0.0000 53.9132 8.6499 7.6353 1.1579 -7.1250 0.0000 -0.0000 -15.3766 37.2904 3.0039 -0.0000 0.0000 0.0000 92.8294 -7.6420 -9.4552 -12.3735 20.3624 -2.2306 0.0000 0.0000 39.2361 0.9747 -6.7319 -0.1143 7.1250 -0.0000 -0.0000 22.9115 -35.8138 5.5422
0.00 0.00 0.00 -175.8580 -34.7388 -170.3550 0.0000 0.0000 0.0000 -19.1990 -8.6509 -33.9883 3.8232 11.9213 35.4542 0.3147 -8.2607 -10.7787 0.1147 -2.1833 -6.0126 0.0000 0.0000 0.0000 25.2438 1.3192 -29.3097 -7.7899 -15.9626 51.8025 -2.5882 1.6712 -30.0214 -0.7529 5.5422 -15.4617 -1.6330 0.9428 -6.6588 -1.3807 1.4598 1.9022 -0.3529 0.6802 5.7138 -2.6902 1.3571 -1.1057 8.3038 1.6847 0.2802 3.1291 0.8165 0.1787 0.0000 0.0000 0.0000 -82.7150 -2.1762 8.0760 9.8545 -16.5117 -1.4333 -0.0000 -0.0000 28.9230 7.3714 8.2167 1.0592 -7.1250 0.0000 -0.0000 -16.5659 37.7683 3.0504 0.0000 0.0000 0.0000 90.0898 -6.0183 10.3773 -20.4165 31.1409 -5.7452 0.0000 0.0000 24.4117 1.9062 -6.7956 -0.2256 7.1250 -0.0000 -0.0000 23.6593 -35.8108 5.7529
0.00 0.00 0.00 -176.8150 -39.4022 -170.7880 0.0000 0.0000 0.0000 -20.8900 -8.9034 -30.6575 3.2370 11.0692 32.5137 0.0373 -10.3521 -7.8455 0.0047 -0.4445 -1.2215 0.0000 0.0000 0.0000 21.4163 4.9277 -35.8211 -12.6630 -18.6571 68.0755 -1.4506 0.8749 -22.5146 -0.3560 3.8330 -10.6073 -2.3801 0.5094 -5.4091 -1.5597 0.9046 2.1219 -0.1947 0.3817 5.2265 -2.4380 2.1556 -0.7742 8.8566 2.7916 -0.6955 3.2605 1.3301 -0.2601 0.0000 -0.0000 0.0000 -82.2073 -3.0328 11.7146 10.5270 -17.5596 -1.6303 -0.0000 -0.0000 26.7141 7.8574 8.1106 1.1154 -7.1250 0.0000 -0.0000 -16.1392 37.6990 2.9950 0.0000 -0.0000 0.0000 89.3696 -7.2158 8.5764 -21.0071 31.8366 -6.0537 0.0000 0.0000 24.6749 1.3711 -6.6337 -0.1584 7.1250 -0.0000 -0.0000 23.1948 -35.6975 5.6924
0.00 0.00 0.00 -175.7880 -45.1150 -173.5510 0.0000 0.0000 0.0000 -20.9363 -8.9972 -25.9434 2.5272 9.8872 28.6123 -0.1668 -11.0216 -4.8600 0.0995 -2.0346 -5.6013 0.0000 0.0000 0.0000 18.2632 7.4792 -43.6721 -18.7072 -19.9599 86.2176 -1.4457 4.5751 -21.6972 -0.1859 2.7767 -7.6577 -2.1615 -0.0204 -3.3501 -0.9999 0.0954 3.0566 0.1826 -0.0304 5.0387 -2.9404 2.8264 -1.1048 9.6599 3.7128 -1.0765 3.6326 1.7808 -0.4102 0.0000 -0.0000 0.0000 -81.9121 -5.4695 18.3433 11.2100 -18.6094 -1.8424 -0.0000 -0.0000 23.0926 8.0067 8.8420 1.2386 -7.1250 0.0000 -0.0000 -16.1889 38.4178 2.7091 0.0000 -0.0000 0.0000 89.1447 -8.6176 6.3355 -21.9552 32.9264 -6.5615 0.0000 0.0000 23.8100 1.3039 -7.0028 -0.1590 7.1250 -0.0000 -0.0000 23.2465 -36.0413 5.4952
0.00 0.00 0.00 -174.1070 -49.9532 -176.8190 0.0000 0.0000 0.0000 -20.3613 -10.3805 -20.9337 1.9149 8.6865 24.8196 -0.2113 -10.0735 -2.6792 0.1512 -2.5055 -6.9048 0.0000 0.0000 0.0000 13.9248 8.7537 -53.7722 -24.6014 -19.4846 103.5654 -1.2134 13.1253 -20.4233 -0.2104 2.9529 -8.1476 -1.7805 -0.1603 -0.7386 -0.4355 -0.2271 3.9438 0.5345 -0.2055 4.4828 -2.9772 3.0384 -1.3871 10.2457 4.0116 -1.4294 3.8463 1.9179 -0.5100 0.0000 -0.0000 0.0000 -82.0980 -9.0016 22.9887 11.8747 -19.6165 -2.0600 -0.0000 -0.0000 22.8163 8.0271 7.8753 1.1070 -7.1250 0.0000 -0.0000 -15.9447 37.4825 3.0442 0.0000 -0.0000 0.0000 89.0564 -9.7887 5.1798 -22.8622 33.9378 -7.0612 0.0000 0.0000 22.5204 3.1872 -7.3399 -0.4076 7.1250 -0.0000 -0.0000 24.8194 -36.2198 5.8105
0.00 0.00 0.00 -172.1300 -53.4720 -180.4010 0.0000 0.0000 0.0000 -19.6313 -11.7996 -15.9069 1.4084 7.5064 21.2247 -0.1828 -8.9917 -1.9110 0.3000 -3.5218 -9.7349 0.0000 0.0000 0.0000 9.0839 8.0785 -66.1876 -29.5737 -17.6427 119.0961 -0.3760 24.8007 -19.9117 -0.3186 3.6285 -10.0337 -2.3534 -0.4906 1.9591 0.6694 -0.8131 4.7788 1.9920 -0.5690 3.8651 -3.9125 2.9528 -1.4429 10.4753 3.9099 -1.1619 4.1142 1.8877 -0.4337 0.0000 0.0000 0.0000 -82.9991 -12.0204 27.2667 13.3099 -21.7396 -2.5669 -0.0000 -0.0000 20.1461 9.0758 6.8748 1.0954 -7.1250 0.0000 -0.0000 -14.8627 36.5750 3.1660 0.0000 0.0000 0.0000 86.7685 -10.8009 8.2835 -24.0999 35.2697 -7.7641 0.0000 0.0000 20.2778 6.0056 -6.8484 -0.7187 7.1250 -0.0000 -0.0000 26.8393 -35.5744 6.8513
0.00 0.00 0.00 -169.5580 -55.6932 -186.2630 0.0000 0.0000 0.0000 -18.6318 -11.9594 -9.3664 1.0454 6.5023 18.2489 -0.1612 -8.2789 -1.5185 0.2103 -2.9522 -8.1456 0.0000 0.0000 0.0000 6.0946 2.6237 -86.0977 -34.3817 -14.0479 136.5702 4.5339 41.9861 -9.9559 -0.0981 2.0202 -5.5615 -2.2381 0.0101 6.4292 0.7285 -0.4018 6.2881 2.0144 -0.4360 2.9110 -3.0031 1.4190 -1.3500 10.3527 1.7364 0.0408 3.9046 0.8278 0.1216 -0.0000 -0.0000 0.0000 -81.5228 -15.1164 32.1608 15.5871 -24.9577 -3.4699 -0.0000 -0.0000 16.1754 9.1367 8.1306 1.3030 -7.1250 0.0000 -0.0000 -15.0837 37.8059 2.7468 -0.0000 -0.0000 0.0000 85.6718 -11.3582 11.9461 -27.1205 38.2939 -9.5737 0.0000 0.0000 19.5214 13.6228 -5.7896 -1.4004 7.1250 -0.0000 -0.0000 32.0791 -34.0451 10.0083
0.00 0.00 0.00 -150.0710 -61.8260 -213.7680 0.0000 0.0000 0.0000 -11.0570 -14.7400 3.2299 1.5927 7.9606 22.5943 -0.1252 -12.4641 -6.9517 1.5164 -7.7762 -22.0365 0.0000 0.0000 0.0000 -0.5489 -1.4313 -130.5071 -32.2834 -15.9068 128.4646 1.0835 29.3475 -14.1705 -0.1526 2.5171 -6.9372 -1.3718 -1.6963 17.0288 2.7034 -3.4094 10.2605 4.1240 -2.3007 1.6860 -2.7828 -3.7334 1.1034 10.1791 -5.4249 2.7953 3.7537 -2.7391 1.0944 0.0000 0.0000 0.0000 -77.8644 -17.3155 28.8055 16.0171 -25.5438 -3.6533 -0.0000 -0.0000 15.0326 9.8636 7.9304 1.3742 -7.1250 0.0000 -0.0000 -14.4358 37.6592 2.6759 0.0000 0.0000 0.0000 75.5484 -7.1848 21.2604 -37.9435 46.8032 -16.9244 0.0000 0.0000 12.7718 35.8794 -1.6910 -1.2228 7.1250 -0.0000 -0.0000 42.7582 -26.9130 26.8045
0.00 0.00 0.00 -144.8990 -61.8392 -218.4100 0.0000 0.0000 0.0000 -7.9428 -15.1390 5.4874 1.2152 6.9926 19.6933 -0.1357 -12.3087 -6.6502 1.6217 -8.0291 -22.8026 0.0000 0.0000 0.0000 -10.7391 -5.9470 -123.3859 -27.6404 -18.5386 112.8758 0.1412 12.0374 -6.3161 -0.0444 1.3600 -3.7398 -1.9059 -1.8030 16.0885 3.1928 -3.5939 10.2745 4.9147 -2.4369 2.2783 -2.7491 -4.5054 2.0904 10.1876 -6.5613 3.6510 3.7507 -3.3191 1.2792 -0.0000 0.0000 0.0000 -78.2949 -16.8937 22.4388 14.0533 -22.8109 -2.8488 -0.0000 -0.0000 19.7042 9.5037 7.5472 1.2596 -7.1250 0.0000 -0.0000 -14.6520 37.2598 2.8658 -0.0000 0.0000 0.0000 73.7280 -5.6988 21.0973 -37.9084 46.7807 -16.8988 0.0000 0.0000 10.8985 37.0714 -1.8852 -1.4237 7.1250 -0.0000 -0.0000 43.2203 -26.6984 27.7723
